<?xml version="1.0" encoding="UTF-8"?>
<svg width="370px" height="167px" viewBox="0 0 370 167" version="1.1" xmlns="http://www.w3.org/2000/svg" xmlns:xlink="http://www.w3.org/1999/xlink">
    <!-- Generator: Sketch 56.3 (81716) - https://sketch.com -->
    <title>feature/5</title>
    <desc>Created with Sketch.</desc>
    <defs>
        <rect id="path-1" x="0" y="0" width="370" height="200"></rect>
        <linearGradient x1="100%" y1="57.5091105%" x2="0%" y2="57.5091105%" id="linearGradient-3">
            <stop stop-color="#FFF400" stop-opacity="0" offset="0%"></stop>
            <stop stop-color="#FF79DB" offset="100%"></stop>
        </linearGradient>
        <radialGradient cx="50%" cy="50%" fx="50%" fy="50%" r="71.1166114%" gradientTransform="translate(0.500000,0.500000),scale(0.482456,1.000000),rotate(90.000000),translate(-0.500000,-0.500000)" id="radialGradient-4">
            <stop stop-color="#5D6CCC" offset="0%"></stop>
            <stop stop-color="#000000" stop-opacity="0" offset="100%"></stop>
        </radialGradient>
        <linearGradient x1="0%" y1="57.5091105%" x2="100%" y2="57.5091105%" id="linearGradient-5">
            <stop stop-color="#7983FF" offset="0%"></stop>
            <stop stop-color="#00F8FF" offset="100%"></stop>
        </linearGradient>
        <radialGradient cx="100%" cy="57.5091105%" fx="100%" fy="57.5091105%" r="148.709122%" gradientTransform="translate(1.000000,0.575091),scale(0.672454,1.000000),rotate(180.000000),translate(-1.000000,-0.575091)" id="radialGradient-6">
            <stop stop-color="#FFF400" offset="0%"></stop>
            <stop stop-color="#FF79DB" offset="100%"></stop>
        </radialGradient>
    </defs>
    <g id="Page-1" stroke="none" stroke-width="1" fill="none" fill-rule="evenodd">
        <g id="Tranching" transform="translate(-322.000000, -2083.000000)">
            <g id="feature/5" transform="translate(322.000000, 2066.000000)">
                <mask id="mask-2" fill="white">
                    <use xlink:href="#path-1"></use>
                </mask>
                <use id="Rectangle" fill="#FFFFFF" opacity="0" xlink:href="#path-1"></use>
                <path d="M272.571429,59 L380,59 C384.418278,59 388,62.581722 388,67 L388,134 C388,138.418278 384.418278,142 380,142 L272.571429,142 C268.153151,142 264.571429,138.418278 264.571429,134 L264.571429,67 C264.571429,62.581722 268.153151,59 272.571429,59 Z" id="Rectangle-Copy-36" fill="url(#linearGradient-3)" opacity="0.8" mask="url(#mask-2)"></path>
                <path d="M353,104.819467 C355.653782,102.444268 359.158228,101 363,101 C371.284271,101 378,107.715729 378,116 C378,124.284271 371.284271,131 363,131 C359.158228,131 355.653782,129.555732 353,127.180533 C350.346218,129.555732 346.841772,131 343,131 C334.715729,131 328,124.284271 328,116 C328,107.715729 334.715729,101 343,101 C346.841772,101 350.346218,102.444268 353,104.819467 Z M353,104.819467 C349.931253,107.56607 348,111.557501 348,116 C348,120.442499 349.931253,124.43393 353,127.180533 C356.068747,124.43393 358,120.442499 358,116 C358,111.557501 356.068747,107.56607 353,104.819467 Z" id="Combined-Shape" fill="#000000" mask="url(#mask-2)"></path>
                <path d="M82,18 L314,18 C344.375661,18 369,42.6243388 369,73 L369,128 C369,158.375661 344.375661,183 314,183 L82,183 C51.6243388,183 27,158.375661 27,128 L27,73 C27,42.6243388 51.6243388,18 82,18 Z" id="Rectangle" stroke="#07F1FF" stroke-width="2" fill="url(#radialGradient-4)" stroke-dasharray="4,4" mask="url(#mask-2)"></path>
                <rect id="Rectangle-Copy-35" fill="url(#linearGradient-5)" opacity="0.801435" mask="url(#mask-2)" x="0" y="59" width="124" height="83" rx="8"></rect>
                <path d="M89,108.418996 C90.6984208,106.914703 92.9412658,106 95.4,106 C100.701934,106 105,110.253295 105,115.5 C105,120.746705 100.701934,125 95.4,125 C92.9412658,125 90.6984208,124.085297 89,122.581004 C87.3015792,124.085297 85.0587342,125 82.6,125 C77.2980664,125 73,120.746705 73,115.5 C73,110.253295 77.2980664,106 82.6,106 C85.0587342,106 87.3015792,106.914703 89,108.418996 Z M89,108.418996 C87.036002,110.158511 85.8,112.686417 85.8,115.5 C85.8,118.313583 87.036002,120.841489 89,122.581004 C90.963998,120.841489 92.2,118.313583 92.2,115.5 C92.2,112.686417 90.963998,110.158511 89,108.418996 Z" id="Combined-Shape" fill="#FFFFFF" mask="url(#mask-2)"></path>
                <path d="M140.571429,59 L248,59 C252.418278,59 256,62.581722 256,67 L256,134 C256,138.418278 252.418278,142 248,142 L140.571429,142 C136.153151,142 132.571429,138.418278 132.571429,134 L132.571429,67 C132.571429,62.581722 136.153151,59 140.571429,59 Z" id="Rectangle-Copy-35" fill="url(#radialGradient-6)" opacity="0.8" mask="url(#mask-2)"></path>
                <path d="M221,104.819467 C223.653782,102.444268 227.158228,101 231,101 C239.284271,101 246,107.715729 246,116 C246,124.284271 239.284271,131 231,131 C227.158228,131 223.653782,129.555732 221,127.180533 C218.346218,129.555732 214.841772,131 211,131 C202.715729,131 196,124.284271 196,116 C196,107.715729 202.715729,101 211,101 C214.841772,101 218.346218,102.444268 221,104.819467 Z M221,104.819467 C217.931253,107.56607 216,111.557501 216,116 C216,120.442499 217.931253,124.43393 221,127.180533 C224.068747,124.43393 226,120.442499 226,116 C226,111.557501 224.068747,107.56607 221,104.819467 Z" id="Combined-Shape" fill="#FFFFFF" mask="url(#mask-2)"></path>
            </g>
        </g>
    </g>
</svg>