<svg width="1520" height="170" viewBox="0 0 1520 170" fill="none" xmlns="http://www.w3.org/2000/svg">
<path fill-rule="evenodd" clip-rule="evenodd" d="M787.74 135.244C745.18 135.244 729.98 108.422 729.98 85.7556V82.7333C729.98 68.3778 735.68 34.7556 787.36 34.7556C831.06 34.7556 840.18 55.5333 841.32 63.4667H887.3C886.54 46.4667 877.42 0 792.68 0H782.04C691.6 0 684.38 61.9556 684.38 81.2222V88.0222C684.38 127.689 709.84 170 782.04 170H792.68C861.08 170 886.16 137.133 886.92 105.4H840.94C840.56 114.089 831.44 135.244 787.74 135.244ZM449.54 2.6446H405.84V167.733H449.54V2.6446ZM904.02 2.6446H947.72V167.733H904.02V2.6446ZM1216.38 2.6446H1173.06V167.356H1336.84V132.222H1216.38V2.6446ZM1520 2.6446V35.5113H1397.64V68.3779H1515.06V101.622H1397.64V134.489H1520V167.356H1353.94V2.6446H1520ZM624.72 2.6446H623.96V113.711L520.98 2.6446H474.62V167.356H517.18H517.94V55.9113L620.92 167.356H623.2H666.9V2.6446H624.72ZM43.7 2.6446H111.72C155.04 2.6446 183.92 15.1113 183.92 57.0446V59.3113C183.92 103.511 148.96 114.845 111.72 114.845H43.7V167.733H0V2.6446H43.7ZM111.72 81.9779C130.72 81.9779 138.7 71.4002 138.7 59.689V57.4224C138.7 45.7113 130.72 35.5113 111.72 35.5113H43.7V81.9779H111.72ZM1084.52 2.6446H1016.5H972.8V167.733H1016.5V114.845H1084.52C1121.76 114.845 1156.72 103.511 1156.72 59.3113V57.0446C1157.1 15.1113 1127.84 2.6446 1084.52 2.6446ZM1111.5 59.689C1111.5 71.4002 1103.52 81.9779 1084.52 81.9779H1016.5V35.5113H1084.52C1103.52 35.5113 1111.5 45.7113 1111.5 57.4224V59.689ZM385.32 48.3557C385.32 74.8002 367.08 86.1335 342.38 90.289C369.36 94.4446 386.08 105.778 386.08 132.978V167.733H342V144.311C342 120.889 332.12 111.067 307.8 111.067H243.58V167.733H199.12V2.6446H313.12C356.82 2.6446 385.32 11.3335 385.32 46.8446V48.3557ZM312.74 35.5113H243.58V76.3113H312.74C331.74 76.3113 339.72 66.489 339.72 55.9113V55.5335C339.72 44.5779 331.74 35.5113 312.74 35.5113Z" fill="black"/>
</svg>
