<?xml version="1.0" encoding="UTF-8"?>
<svg width="393px" height="262px" viewBox="0 0 393 262" version="1.1" xmlns="http://www.w3.org/2000/svg" xmlns:xlink="http://www.w3.org/1999/xlink">
    <!-- Generator: Sketch 56.3 (81716) - https://sketch.com -->
    <title>feature/1</title>
    <desc>Created with Sketch.</desc>
    <defs>
        <filter x="-23.7%" y="-23.7%" width="147.4%" height="147.4%" filterUnits="objectBoundingBox" id="filter-1">
            <feGaussianBlur stdDeviation="15" in="SourceGraphic"></feGaussianBlur>
        </filter>
        <radialGradient cx="50%" cy="50%" fx="50%" fy="50%" r="90.1928818%" gradientTransform="translate(0.500000,0.500000),scale(0.540541,1.000000),rotate(90.000000),translate(-0.500000,-0.500000)" id="radialGradient-2">
            <stop stop-color="#06F2FF" offset="0%"></stop>
            <stop stop-color="#04939B" stop-opacity="0.608144822" offset="39.1855178%"></stop>
            <stop stop-color="#000000" stop-opacity="0" offset="100%"></stop>
        </radialGradient>
        <rect id="path-3" x="0" y="0" width="370" height="200"></rect>
        <linearGradient x1="50%" y1="0%" x2="50%" y2="100%" id="linearGradient-5">
            <stop stop-color="#FCDB00" offset="0%"></stop>
            <stop stop-color="#F7B500" stop-opacity="0" offset="100%"></stop>
        </linearGradient>
        <linearGradient x1="50%" y1="0%" x2="50%" y2="100%" id="linearGradient-6">
            <stop stop-color="#02F6FF" offset="0%"></stop>
            <stop stop-color="#FFFFFF" stop-opacity="0" offset="100%"></stop>
        </linearGradient>
        <linearGradient x1="50%" y1="0%" x2="50%" y2="100%" id="linearGradient-7">
            <stop stop-color="#FF7ED3" offset="0%"></stop>
            <stop stop-color="#FFB5EB" stop-opacity="0" offset="100%"></stop>
        </linearGradient>
        <linearGradient x1="50%" y1="0%" x2="50%" y2="100%" id="linearGradient-8">
            <stop stop-color="#EDB5FF" offset="0%"></stop>
            <stop stop-color="#D67EFF" stop-opacity="0" offset="100%"></stop>
        </linearGradient>
    </defs>
    <g id="Page-1" stroke="none" stroke-width="1" fill="none" fill-rule="evenodd">
        <g id="Tranching" transform="translate(-287.000000, -708.000000)">
            <g id="feature/1" transform="translate(322.000000, 744.000000)">
                <rect id="Rectangle" fill="#6271E1" opacity="0.390133086" filter="url(#filter-1)" x="1.93567251" y="0" width="190" height="190" rx="95"></rect>
                <mask id="mask-4" fill="white">
                    <use xlink:href="#path-3"></use>
                </mask>
                <use id="Rectangle" fill="url(#radialGradient-2)" opacity="0" xlink:href="#path-3"></use>
                <rect id="Rectangle" fill="url(#linearGradient-5)" mask="url(#mask-4)" x="20" y="1" width="124" height="171" rx="12"></rect>
                <rect id="Rectangle-Copy-21" fill="url(#linearGradient-6)" mask="url(#mask-4)" x="234" y="1" width="124" height="189" rx="12"></rect>
                <g id="arrow" mask="url(#mask-4)" stroke="#FFFFFF">
                    <g transform="translate(187.534299, 31.234448) rotate(19.000000) translate(-187.534299, -31.234448) translate(155.441133, 5.363893)">
                        <path d="M-1.13686838e-13,51.7411083 C0.315448118,30.6521249 30.5847482,3.83306705 64,2.74110831" id="Path-4"></path>
                        <polyline id="Path-5" points="58.1863323 4.54747351e-13 64.1863323 2.78242348 59.3003512 9"></polyline>
                    </g>
                </g>
                <path d="M44,41 C38.4771525,41 34,36.5228475 34,31 C34,25.4771525 38.4771525,21 44,21 C49.5228475,21 54,25.4771525 54,31 C54,36.5228475 49.5228475,41 44,41 Z M63,22 L89,22 C90.6568542,22 92,23.3431458 92,25 C92,26.6568542 90.6568542,28 89,28 L63,28 C61.3431458,28 60,26.6568542 60,25 C60,23.3431458 61.3431458,22 63,22 Z M62,30 L122,30 C123.104569,30 124,30.8954305 124,32 C124,33.1045695 123.104569,34 122,34 L62,34 C60.8954305,34 60,33.1045695 60,32 C60,30.8954305 60.8954305,30 62,30 Z M62,36 L122,36 C123.104569,36 124,36.8954305 124,38 C124,39.1045695 123.104569,40 122,40 L62,40 C60.8954305,40 60,39.1045695 60,38 C60,36.8954305 60.8954305,36 62,36 Z M44,73 C38.4771525,73 34,68.5228475 34,63 C34,57.4771525 38.4771525,53 44,53 C49.5228475,53 54,57.4771525 54,63 C54,68.5228475 49.5228475,73 44,73 Z M63,54 L89,54 C90.6568542,54 92,55.3431458 92,57 C92,58.6568542 90.6568542,60 89,60 L63,60 C61.3431458,60 60,58.6568542 60,57 C60,55.3431458 61.3431458,54 63,54 Z M62,62 L122,62 C123.104569,62 124,62.8954305 124,64 C124,65.1045695 123.104569,66 122,66 L62,66 C60.8954305,66 60,65.1045695 60,64 C60,62.8954305 60.8954305,62 62,62 Z M62,68 L122,68 C123.104569,68 124,68.8954305 124,70 C124,71.1045695 123.104569,72 122,72 L62,72 C60.8954305,72 60,71.1045695 60,70 C60,68.8954305 60.8954305,68 62,68 Z M44,105 C38.4771525,105 34,100.522847 34,95 C34,89.4771525 38.4771525,85 44,85 C49.5228475,85 54,89.4771525 54,95 C54,100.522847 49.5228475,105 44,105 Z M63,86 L89,86 C90.6568542,86 92,87.3431458 92,89 C92,90.6568542 90.6568542,92 89,92 L63,92 C61.3431458,92 60,90.6568542 60,89 C60,87.3431458 61.3431458,86 63,86 Z M62,94 L122,94 C123.104569,94 124,94.8954305 124,96 C124,97.1045695 123.104569,98 122,98 L62,98 C60.8954305,98 60,97.1045695 60,96 C60,94.8954305 60.8954305,94 62,94 Z M62,100 L122,100 C123.104569,100 124,100.895431 124,102 C124,103.104569 123.104569,104 122,104 L62,104 C60.8954305,104 60,103.104569 60,102 C60,100.895431 60.8954305,100 62,100 Z M44,137 C38.4771525,137 34,132.522847 34,127 C34,121.477153 38.4771525,117 44,117 C49.5228475,117 54,121.477153 54,127 C54,132.522847 49.5228475,137 44,137 Z M63,118 L89,118 C90.6568542,118 92,119.343146 92,121 C92,122.656854 90.6568542,124 89,124 L63,124 C61.3431458,124 60,122.656854 60,121 C60,119.343146 61.3431458,118 63,118 Z M62,126 L122,126 C123.104569,126 124,126.895431 124,128 C124,129.104569 123.104569,130 122,130 L62,130 C60.8954305,130 60,129.104569 60,128 C60,126.895431 60.8954305,126 62,126 Z M62,132 L122,132 C123.104569,132 124,132.895431 124,134 C124,135.104569 123.104569,136 122,136 L62,136 C60.8954305,136 60,135.104569 60,134 C60,132.895431 60.8954305,132 62,132 Z" id="Combined-Shape" fill="#F3E8C8" mask="url(#mask-4)"></path>
                <rect id="Rectangle" fill="url(#linearGradient-7)" mask="url(#mask-4)" x="69" y="39" width="116.023392" height="152" rx="12"></rect>
                <path d="M93,79 C87.4771525,79 83,74.5228475 83,69 C83,63.4771525 87.4771525,59 93,59 C98.5228475,59 103,63.4771525 103,69 C103,74.5228475 98.5228475,79 93,79 Z M112,60 L138,60 C139.656854,60 141,61.3431458 141,63 C141,64.6568542 139.656854,66 138,66 L112,66 C110.343146,66 109,64.6568542 109,63 C109,61.3431458 110.343146,60 112,60 Z M111,68 L171,68 C172.104569,68 173,68.8954305 173,70 C173,71.1045695 172.104569,72 171,72 L111,72 C109.895431,72 109,71.1045695 109,70 C109,68.8954305 109.895431,68 111,68 Z M111,74 L171,74 C172.104569,74 173,74.8954305 173,76 C173,77.1045695 172.104569,78 171,78 L111,78 C109.895431,78 109,77.1045695 109,76 C109,74.8954305 109.895431,74 111,74 Z M93,111 C87.4771525,111 83,106.522847 83,101 C83,95.4771525 87.4771525,91 93,91 C98.5228475,91 103,95.4771525 103,101 C103,106.522847 98.5228475,111 93,111 Z M112,92 L138,92 C139.656854,92 141,93.3431458 141,95 C141,96.6568542 139.656854,98 138,98 L112,98 C110.343146,98 109,96.6568542 109,95 C109,93.3431458 110.343146,92 112,92 Z M111,100 L171,100 C172.104569,100 173,100.895431 173,102 C173,103.104569 172.104569,104 171,104 L111,104 C109.895431,104 109,103.104569 109,102 C109,100.895431 109.895431,100 111,100 Z M111,106 L171,106 C172.104569,106 173,106.895431 173,108 C173,109.104569 172.104569,110 171,110 L111,110 C109.895431,110 109,109.104569 109,108 C109,106.895431 109.895431,106 111,106 Z M93,143 C87.4771525,143 83,138.522847 83,133 C83,127.477153 87.4771525,123 93,123 C98.5228475,123 103,127.477153 103,133 C103,138.522847 98.5228475,143 93,143 Z M112,124 L138,124 C139.656854,124 141,125.343146 141,127 C141,128.656854 139.656854,130 138,130 L112,130 C110.343146,130 109,128.656854 109,127 C109,125.343146 110.343146,124 112,124 Z M111,132 L171,132 C172.104569,132 173,132.895431 173,134 C173,135.104569 172.104569,136 171,136 L111,136 C109.895431,136 109,135.104569 109,134 C109,132.895431 109.895431,132 111,132 Z M111,138 L171,138 C172.104569,138 173,138.895431 173,140 C173,141.104569 172.104569,142 171,142 L111,142 C109.895431,142 109,141.104569 109,140 C109,138.895431 109.895431,138 111,138 Z M93,175 C87.4771525,175 83,170.522847 83,165 C83,159.477153 87.4771525,155 93,155 C98.5228475,155 103,159.477153 103,165 C103,170.522847 98.5228475,175 93,175 Z M112,156 L138,156 C139.656854,156 141,157.343146 141,159 C141,160.656854 139.656854,162 138,162 L112,162 C110.343146,162 109,160.656854 109,159 C109,157.343146 110.343146,156 112,156 Z M111,164 L171,164 C172.104569,164 173,164.895431 173,166 C173,167.104569 172.104569,168 171,168 L111,168 C109.895431,168 109,167.104569 109,166 C109,164.895431 109.895431,164 111,164 Z M111,170 L171,170 C172.104569,170 173,170.895431 173,172 C173,173.104569 172.104569,174 171,174 L111,174 C109.895431,174 109,173.104569 109,172 C109,170.895431 109.895431,170 111,170 Z" id="Combined-Shape" fill="#F7F3F6" mask="url(#mask-4)"></path>
                <path d="M296,37 C290.477153,37 286,32.5228475 286,27 C286,21.4771525 290.477153,17 296,17 C301.522847,17 306,21.4771525 306,27 C306,32.5228475 301.522847,37 296,37 Z M266,41 L326,41 C327.104569,41 328,41.8954305 328,43 C328,44.1045695 327.104569,45 326,45 L266,45 C264.895431,45 264,44.1045695 264,43 C264,41.8954305 264.895431,41 266,41 Z M275,47 L317,47 C318.104569,47 319,47.8954305 319,49 C319,50.1045695 318.104569,51 317,51 L275,51 C273.895431,51 273,50.1045695 273,49 C273,47.8954305 273.895431,47 275,47 Z" id="Combined-Shape-Copy-2" fill="#FFFFFF" mask="url(#mask-4)"></path>
                <path d="M296,85 C290.477153,85 286,80.5228475 286,75 C286,69.4771525 290.477153,65 296,65 C301.522847,65 306,69.4771525 306,75 C306,80.5228475 301.522847,85 296,85 Z M266,89 L326,89 C327.104569,89 328,89.8954305 328,91 C328,92.1045695 327.104569,93 326,93 L266,93 C264.895431,93 264,92.1045695 264,91 C264,89.8954305 264.895431,89 266,89 Z M275,95 L317,95 C318.104569,95 319,95.8954305 319,97 C319,98.1045695 318.104569,99 317,99 L275,99 C273.895431,99 273,98.1045695 273,97 C273,95.8954305 273.895431,95 275,95 Z" id="Combined-Shape-Copy-2" fill="#F7B500" mask="url(#mask-4)"></path>
                <path d="M296,133 C290.477153,133 286,128.522847 286,123 C286,117.477153 290.477153,113 296,113 C301.522847,113 306,117.477153 306,123 C306,128.522847 301.522847,133 296,133 Z M266,137 L326,137 C327.104569,137 328,137.895431 328,139 C328,140.104569 327.104569,141 326,141 L266,141 C264.895431,141 264,140.104569 264,139 C264,137.895431 264.895431,137 266,137 Z M275,143 L317,143 C318.104569,143 319,143.895431 319,145 C319,146.104569 318.104569,147 317,147 L275,147 C273.895431,147 273,146.104569 273,145 C273,143.895431 273.895431,143 275,143 Z" id="Combined-Shape-Copy-2" fill="#FF7ED3" mask="url(#mask-4)"></path>
                <path d="M296,181 C290.477153,181 286,176.522847 286,171 C286,165.477153 290.477153,161 296,161 C301.522847,161 306,165.477153 306,171 C306,176.522847 301.522847,181 296,181 Z M266,185 L326,185 C327.104569,185 328,185.895431 328,187 C328,188.104569 327.104569,189 326,189 L266,189 C264.895431,189 264,188.104569 264,187 C264,185.895431 264.895431,185 266,185 Z M275,191 L317,191 C318.104569,191 319,191.895431 319,193 C319,194.104569 318.104569,195 317,195 L275,195 C273.895431,195 273,194.104569 273,193 C273,191.895431 273.895431,191 275,191 Z" id="Combined-Shape-Copy-2" fill="url(#linearGradient-8)" mask="url(#mask-4)"></path>
            </g>
        </g>
    </g>
</svg>