<?xml version="1.0" encoding="UTF-8"?>
<svg width="315px" height="159px" viewBox="0 0 315 159" version="1.1" xmlns="http://www.w3.org/2000/svg" xmlns:xlink="http://www.w3.org/1999/xlink">
    <!-- Generator: Sketch 56.3 (81716) - https://sketch.com -->
    <title>feature/3</title>
    <desc>Created with Sketch.</desc>
    <defs>
        <linearGradient x1="0%" y1="57.5091105%" x2="100%" y2="57.5091105%" id="linearGradient-1">
            <stop stop-color="#7983FF" offset="0%"></stop>
            <stop stop-color="#00F8FF" offset="100%"></stop>
        </linearGradient>
        <linearGradient x1="0%" y1="57.5091105%" x2="100%" y2="57.5091105%" id="linearGradient-2">
            <stop stop-color="#7983FF" offset="0%"></stop>
            <stop stop-color="#23D6FF" offset="100%"></stop>
        </linearGradient>
        <linearGradient x1="0%" y1="57.5091105%" x2="100%" y2="57.5091105%" id="linearGradient-3">
            <stop stop-color="#7983FF" offset="0%"></stop>
            <stop stop-color="#23D6FF" offset="100%"></stop>
        </linearGradient>
    </defs>
    <g id="Page-1" stroke="none" stroke-width="1" fill="none" fill-rule="evenodd">
        <g id="Tranching" transform="translate(-342.000000, -1425.000000)">
            <g id="feature/3" transform="translate(323.000000, 1415.000000)">
                <rect id="Rectangle" fill="url(#linearGradient-1)" opacity="0" x="0" y="0" width="370" height="200"></rect>
                <rect id="Rectangle-Copy-11" fill="url(#linearGradient-2)" x="38.74375" y="130.364373" width="16.81875" height="38" rx="6"></rect>
                <rect id="Rectangle-Copy-25" fill="url(#linearGradient-2)" x="38.74375" y="86.3643729" width="16.81875" height="38" rx="6"></rect>
                <rect id="Rectangle-Copy-15" fill="url(#linearGradient-2)" x="149.71875" y="130.364373" width="16.81875" height="38" rx="6"></rect>
                <rect id="Rectangle-Copy-26" fill="url(#linearGradient-2)" x="149.71875" y="86.3643729" width="16.81875" height="38" rx="6"></rect>
                <path d="M321.71875,130.364373 L326.5375,130.364373 C329.851208,130.364373 332.5375,133.050664 332.5375,136.364373 L332.5375,162.364373 C332.5375,165.678081 329.851208,168.364373 326.5375,168.364373 L321.71875,168.364373 C318.405042,168.364373 315.71875,165.678081 315.71875,162.364373 L315.71875,136.364373 C315.71875,133.050664 318.405042,130.364373 321.71875,130.364373 Z" id="Rectangle-Copy-19" stroke="#CCCCCC" stroke-dasharray="2,2"></path>
                <path d="M321.71875,86.3643729 L326.5375,86.3643729 C329.851208,86.3643729 332.5375,89.0506644 332.5375,92.3643729 L332.5375,118.364373 C332.5375,121.678081 329.851208,124.364373 326.5375,124.364373 L321.71875,124.364373 C318.405042,124.364373 315.71875,121.678081 315.71875,118.364373 L315.71875,92.3643729 C315.71875,89.0506644 318.405042,86.3643729 321.71875,86.3643729 Z" id="Rectangle-Copy-27" stroke="#CCCCCC" stroke-dasharray="2,2"></path>
                <rect id="Rectangle-Copy-12" fill="url(#linearGradient-2)" x="94.23125" y="130.364373" width="16.81875" height="38" rx="6"></rect>
                <rect id="Rectangle-Copy-29" fill="url(#linearGradient-2)" x="94.23125" y="86.3643729" width="16.81875" height="38" rx="6"></rect>
                <path d="M266.23125,130.364373 L271.05,130.364373 C274.363708,130.364373 277.05,133.050664 277.05,136.364373 L277.05,162.364373 C277.05,165.678081 274.363708,168.364373 271.05,168.364373 L266.23125,168.364373 C262.917542,168.364373 260.23125,165.678081 260.23125,162.364373 L260.23125,136.364373 C260.23125,133.050664 262.917542,130.364373 266.23125,130.364373 Z" id="Rectangle-Copy-20" stroke="#CCCCCC" stroke-dasharray="2,2"></path>
                <path d="M266.23125,86.3643729 L271.05,86.3643729 C274.363708,86.3643729 277.05,89.0506644 277.05,92.3643729 L277.05,118.364373 C277.05,121.678081 274.363708,124.364373 271.05,124.364373 L266.23125,124.364373 C262.917542,124.364373 260.23125,121.678081 260.23125,118.364373 L260.23125,92.3643729 C260.23125,89.0506644 262.917542,86.3643729 266.23125,86.3643729 Z" id="Rectangle-Copy-30" stroke="#CCCCCC" stroke-dasharray="2,2"></path>
                <rect id="Rectangle-Copy-16" fill="url(#linearGradient-2)" x="205.20625" y="130.364373" width="16.81875" height="38" rx="6"></rect>
                <rect id="Rectangle-Copy-31" fill="url(#linearGradient-2)" x="205.20625" y="86.3643729" width="16.81875" height="38" rx="6"></rect>
                <rect id="Rectangle-Copy-13" fill="url(#linearGradient-2)" x="74.4875" y="130.364373" width="16.81875" height="38" rx="6"></rect>
                <rect id="Rectangle-Copy-34" fill="url(#linearGradient-2)" x="74.4875" y="86.3643729" width="16.81875" height="38" rx="6"></rect>
                <rect id="Rectangle-Copy-17" fill="url(#linearGradient-2)" x="185.4625" y="130.364373" width="16.81875" height="38" rx="6"></rect>
                <rect id="Rectangle-Copy-35" fill="url(#linearGradient-2)" x="185.4625" y="86.3643729" width="16.81875" height="38" rx="6"></rect>
                <rect id="Rectangle-Copy-10" fill="url(#linearGradient-2)" x="19" y="130.364373" width="16.81875" height="38" rx="6"></rect>
                <rect id="Rectangle-Copy-37" fill="url(#linearGradient-2)" x="19" y="86.3643729" width="16.81875" height="38" rx="6"></rect>
                <rect id="Rectangle-Copy-14" fill="url(#linearGradient-2)" x="129.975" y="130.364373" width="16.81875" height="38" rx="6"></rect>
                <rect id="Rectangle-Copy-38" fill="url(#linearGradient-2)" x="129.975" y="86.3643729" width="16.81875" height="38" rx="6"></rect>
                <path d="M301.975,130.364373 L306.79375,130.364373 C310.107458,130.364373 312.79375,133.050664 312.79375,136.364373 L312.79375,162.364373 C312.79375,165.678081 310.107458,168.364373 306.79375,168.364373 L301.975,168.364373 C298.661292,168.364373 295.975,165.678081 295.975,162.364373 L295.975,136.364373 C295.975,133.050664 298.661292,130.364373 301.975,130.364373 Z" id="Rectangle-Copy-23" stroke="#CCCCCC" stroke-dasharray="2,2"></path>
                <path d="M301.975,86.3643729 L306.79375,86.3643729 C310.107458,86.3643729 312.79375,89.0506644 312.79375,92.3643729 L312.79375,118.364373 C312.79375,121.678081 310.107458,124.364373 306.79375,124.364373 L301.975,124.364373 C298.661292,124.364373 295.975,121.678081 295.975,118.364373 L295.975,92.3643729 C295.975,89.0506644 298.661292,86.3643729 301.975,86.3643729 Z" id="Rectangle-Copy-39" stroke="#CCCCCC" stroke-dasharray="2,2"></path>
                <path d="M246.95,130.364373 L251.76875,130.364373 C255.082458,130.364373 257.76875,133.050664 257.76875,136.364373 L257.76875,162.364373 C257.76875,165.678081 255.082458,168.364373 251.76875,168.364373 L246.95,168.364373 C243.636292,168.364373 240.95,165.678081 240.95,162.364373 L240.95,136.364373 C240.95,133.050664 243.636292,130.364373 246.95,130.364373 Z" id="Rectangle-Copy-18" stroke="#CCCCCC" stroke-dasharray="2,2"></path>
                <path d="M246.95,86.3643729 L251.76875,86.3643729 C255.082458,86.3643729 257.76875,89.0506644 257.76875,92.3643729 L257.76875,118.364373 C257.76875,121.678081 255.082458,124.364373 251.76875,124.364373 L246.95,124.364373 C243.636292,124.364373 240.95,121.678081 240.95,118.364373 L240.95,92.3643729 C240.95,89.0506644 243.636292,86.3643729 246.95,86.3643729 Z" id="Rectangle-Copy-40" stroke="#CCCCCC" stroke-dasharray="2,2"></path>
                <path d="M218.497525,59.9105566 C218.821705,59.7208784 219.201751,59.6177938 219.604882,59.6318714 L282.228143,61.8187239 C283.361772,61.8583111 284.248667,62.8093904 284.20908,63.9430191 L284.068072,67.9809711 C284.028485,69.1145998 283.077405,70.0014956 281.943777,69.9619084 L219.320515,67.775056 C219.025479,67.7647531 218.747154,67.6927106 218.497525,67.5717788 L218.497525,74.7087539 C218.497525,78.3952927 215.508995,81.383823 211.822456,81.383823 L205.141844,81.383823 C201.455305,81.383823 198.466775,78.3952927 198.466775,74.7087539 L198.466775,46.4145733 C198.466775,35.3518953 207.434848,26.383823 218.497525,26.383823 L218.497525,59.9105566 Z" id="Combined-Shape" fill="url(#linearGradient-3)" transform="translate(241.338565, 53.883823) scale(1, -1) rotate(-33.000000) translate(-241.338565, -53.883823) "></path>
            </g>
        </g>
    </g>
</svg>