<?xml version="1.0" encoding="UTF-8"?>
<svg width="615px" height="696px" viewBox="0 0 615 696" version="1.1" xmlns="http://www.w3.org/2000/svg" xmlns:xlink="http://www.w3.org/1999/xlink">
    <!-- Generator: Sketch 56.3 (81716) - https://sketch.com -->
    <title>image</title>
    <desc>Created with Sketch.</desc>
    <defs>
        <rect id="path-1" x="0" y="0" width="631" height="696"></rect>
        <linearGradient x1="0%" y1="57.5091105%" x2="100%" y2="57.5091105%" id="linearGradient-3">
            <stop stop-color="#7983FF" offset="0%"></stop>
            <stop stop-color="#00F8FF" offset="100%"></stop>
        </linearGradient>
        <linearGradient x1="0%" y1="53.5558839%" x2="65.7305861%" y2="37.637857%" id="linearGradient-4">
            <stop stop-color="#7983FF" offset="0%"></stop>
            <stop stop-color="#00F8FF" offset="100%"></stop>
        </linearGradient>
    </defs>
    <g id="Page-1" stroke="none" stroke-width="1" fill="none" fill-rule="evenodd">
        <g id="Tranching" transform="translate(-825.000000, 0.000000)">
            <g id="image" transform="translate(809.000000, 0.000000)">
                <mask id="mask-2" fill="white">
                    <use xlink:href="#path-1"></use>
                </mask>
                <g id="Rectangle"></g>
                <polygon id="Fill-14" fill="url(#linearGradient-3)" opacity="0.159876" mask="url(#mask-2)" points="514.681862 -77 374.526373 -6.28198587 417.042744 38.2817896 426.183319 47.9309262 463.393078 87.0353218 467.950671 91.7329278 472.533654 96.5574961 499.95538 125.377943 450.063072 150.516484 444.083613 153.563579 438.116848 156.496409 403.712738 173.877551 397.745974 176.924647 391.906162 179.84478 16 369.272567 58.4021135 413.836342 63.0993536 418.660911 67.6823365 423.485479 104.752448 462.462912 109.31004 467.414443 113.893023 472.112049 147.535418 507.420271 152.093011 512.232143 156.663299 517.056711 189.683627 551.717425 194.24122 556.55469 198.811507 561.2396 207.063416 570 654.824656 344.248293 660.79142 341.213893 666.631232 338.29376 690.891843 326.105377 816.066944 457.498685 819.113803 456.00053 824.940919 452.940738 830.920379 450.020604 859.979792 435.432633 865.959251 432.372841 871.799063 429.325746 906.190478 412.046173 912.157243 409.011774 918.263655 405.964678 956.209738 386.92033"></polygon>
                <polygon id="Fill-14" fill="url(#linearGradient-3)" opacity="0.159876" mask="url(#mask-2)" points="514.681862 -13 374.526373 57.7180141 417.042744 102.28179 426.183319 111.930926 463.393078 151.035322 467.950671 155.732928 472.533654 160.557496 499.95538 189.377943 450.063072 214.516484 444.083613 217.563579 438.116848 220.496409 403.712738 237.877551 397.745974 240.924647 391.906162 243.84478 16 433.272567 58.4021135 477.836342 63.0993536 482.660911 67.6823365 487.485479 104.752448 526.462912 109.31004 531.414443 113.893023 536.112049 147.535418 571.420271 152.093011 576.232143 156.663299 581.056711 189.683627 615.717425 194.24122 620.55469 198.811507 625.2396 207.063416 634 654.824656 408.248293 660.79142 405.213893 666.631232 402.29376 690.891843 390.105377 816.066944 521.498685 819.113803 520.00053 824.940919 516.940738 830.920379 514.020604 859.979792 499.432633 865.959251 496.372841 871.799063 493.325746 906.190478 476.046173 912.157243 473.011774 918.263655 469.964678 956.209738 450.92033"></polygon>
                <polygon id="Fill-14" fill="url(#linearGradient-3)" opacity="0.159876" mask="url(#mask-2)" points="514.681862 51 374.526373 121.718014 417.042744 166.28179 426.183319 175.930926 463.393078 215.035322 467.950671 219.732928 472.533654 224.557496 499.95538 253.377943 450.063072 278.516484 444.083613 281.563579 438.116848 284.496409 403.712738 301.877551 397.745974 304.924647 391.906162 307.84478 16 497.272567 58.4021135 541.836342 63.0993536 546.660911 67.6823365 551.485479 104.752448 590.462912 109.31004 595.414443 113.893023 600.112049 147.535418 635.420271 152.093011 640.232143 156.663299 645.056711 189.683627 679.717425 194.24122 684.55469 198.811507 689.2396 207.063416 698 654.824656 472.248293 660.79142 469.213893 666.631232 466.29376 690.891843 454.105377 816.066944 585.498685 819.113803 584.00053 824.940919 580.940738 830.920379 578.020604 859.979792 563.432633 865.959251 560.372841 871.799063 557.325746 906.190478 540.046173 912.157243 537.011774 918.263655 533.964678 956.209738 514.92033"></polygon>
                <polygon id="Fill-14" fill="url(#linearGradient-4)" mask="url(#mask-2)" points="514.681862 -141 374.526373 -70.2819859 417.042744 -25.7182104 426.183319 -16.0690738 463.393078 23.0353218 467.950671 27.7329278 472.533654 32.5574961 499.95538 61.3779435 450.063072 86.5164835 444.083613 89.5635793 438.116848 92.4964089 403.712738 109.877551 397.745974 112.924647 391.906162 115.84478 16 305.272567 58.4021135 349.836342 63.0993536 354.660911 67.6823365 359.485479 104.752448 398.462912 109.31004 403.414443 113.893023 408.112049 147.535418 443.420271 152.093011 448.232143 156.663299 453.056711 189.683627 487.717425 194.24122 492.55469 198.811507 497.2396 207.063416 506 654.824656 280.248293 660.79142 277.213893 666.631232 274.29376 690.891843 262.105377 816.066944 393.498685 819.113803 392.00053 824.940919 388.940738 830.920379 386.020604 859.979792 371.432633 865.959251 368.372841 871.799063 365.325746 906.190478 348.046173 912.157243 345.011774 918.263655 341.964678 956.209738 322.92033"></polygon>
            </g>
        </g>
    </g>
</svg>