<?xml version="1.0" encoding="UTF-8"?>
<svg width="82px" height="94px" viewBox="0 0 82 94" version="1.1" xmlns="http://www.w3.org/2000/svg" xmlns:xlink="http://www.w3.org/1999/xlink">
    <!-- Generator: Sketch 56.3 (81716) - https://sketch.com -->
    <title>icon/token1</title>
    <desc>Created with Sketch.</desc>
    <defs>
        <linearGradient x1="0%" y1="57.5091105%" x2="100%" y2="57.5091105%" id="linearGradient-1">
            <stop stop-color="#7983FF" offset="0%"></stop>
            <stop stop-color="#00F8FF" offset="100%"></stop>
        </linearGradient>
    </defs>
    <g id="Page-1" stroke="none" stroke-width="1" fill="none" fill-rule="evenodd">
        <g id="Tranching" transform="translate(-357.000000, -2515.000000)">
            <g id="icon/token1" transform="translate(348.000000, 2512.000000)">
                <rect id="Rectangle-Copy-2" fill="url(#linearGradient-1)" opacity="0" x="0" y="0" width="100" height="100"></rect>
                <path d="M18,4 L82,4 C82,21.673112 67.673112,36 50,36 C32.326888,36 18,21.673112 18,4 Z" id="Combined-Shape" fill="#FFFFFF"></path>
                <path d="M18,4 L82,4 C86.418278,4 90,7.581722 90,12 L90,73.3932047 C90,76.6507762 88.0247737,79.5830249 85.0058964,80.8070153 L50,95 L14.9941036,80.8070153 C11.9752263,79.5830249 10,76.6507762 10,73.3932047 L10,12 C10,7.581722 13.581722,4 18,4 Z" id="Rectangle-Copy-44" stroke="#FFFFFF" stroke-width="2"></path>
                <path d="M50,47.4189961 C51.6984208,45.914703 53.9412658,45 56.4,45 C61.7019336,45 66,49.2532949 66,54.5 C66,59.7467051 61.7019336,64 56.4,64 C53.9412658,64 51.6984208,63.085297 50,61.5810039 C48.3015792,63.085297 46.0587342,64 43.6,64 C38.2980664,64 34,59.7467051 34,54.5 C34,49.2532949 38.2980664,45 43.6,45 C46.0587342,45 48.3015792,45.914703 50,47.4189961 Z M50,47.4189961 C48.036002,49.1585111 46.8,51.6864173 46.8,54.5 C46.8,57.3135827 48.036002,59.8414889 50,61.5810039 C51.963998,59.8414889 53.2,57.3135827 53.2,54.5 C53.2,51.6864173 51.963998,49.1585111 50,47.4189961 Z" id="Combined-Shape-Copy-5" fill="#000000"></path>
            </g>
        </g>
    </g>
</svg>